<svg width="16" height="16" viewBox="0 0 16 16" fill="none" xmlns="http://www.w3.org/2000/svg">
<path d="M4.39583 12.1875H8.875C9.05556 12.1875 9.20486 12.1285 9.32292 12.0104C9.44097 11.8924 9.5 11.7431 9.5 11.5625C9.5 11.3819 9.44097 11.2326 9.32292 11.1146C9.20486 10.9965 9.05556 10.9375 8.875 10.9375H4.39583C4.21528 10.9375 4.06597 10.9965 3.94792 11.1146C3.82986 11.2326 3.77083 11.3819 3.77083 11.5625C3.77083 11.7431 3.82986 11.8924 3.94792 12.0104C4.06597 12.1285 4.21528 12.1875 4.39583 12.1875ZM4.39583 8.625H11.6042C11.7847 8.625 11.934 8.56597 12.0521 8.44792C12.1701 8.32986 12.2292 8.18056 12.2292 8C12.2292 7.81944 12.1701 7.67014 12.0521 7.55208C11.934 7.43403 11.7847 7.375 11.6042 7.375H4.39583C4.21528 7.375 4.06597 7.43403 3.94792 7.55208C3.82986 7.67014 3.77083 7.81944 3.77083 8C3.77083 8.18056 3.82986 8.32986 3.94792 8.44792C4.06597 8.56597 4.21528 8.625 4.39583 8.625ZM4.39583 5.0625H11.6042C11.7847 5.0625 11.934 5.00347 12.0521 4.88542C12.1701 4.76736 12.2292 4.61806 12.2292 4.4375C12.2292 4.25694 12.1701 4.10764 12.0521 3.98958C11.934 3.87153 11.7847 3.8125 11.6042 3.8125H4.39583C4.21528 3.8125 4.06597 3.87153 3.94792 3.98958C3.82986 4.10764 3.77083 4.25694 3.77083 4.4375C3.77083 4.61806 3.82986 4.76736 3.94792 4.88542C4.06597 5.00347 4.21528 5.0625 4.39583 5.0625ZM1.75 15.5C1.41667 15.5 1.125 15.375 0.875 15.125C0.625 14.875 0.5 14.5833 0.5 14.25V1.75C0.5 1.41667 0.625 1.125 0.875 0.875C1.125 0.625 1.41667 0.5 1.75 0.5H14.25C14.5833 0.5 14.875 0.625 15.125 0.875C15.375 1.125 15.5 1.41667 15.5 1.75V14.25C15.5 14.5833 15.375 14.875 15.125 15.125C14.875 15.375 14.5833 15.5 14.25 15.5H1.75Z" fill="#0F81C0"/>
</svg>
