<svg width="18" height="20" viewBox="0 0 18 20" fill="none" xmlns="http://www.w3.org/2000/svg">
<path d="M12 0H2C0.9 0 0.00999999 0.975 0.00999999 2.16667L0 17.3333C0 18.525 0.89 19.5 1.99 19.5H16C17.1 19.5 18 18.525 18 17.3333V6.5L12 0ZM5 15.1667C4.45 15.1667 4 14.6792 4 14.0833C4 13.4875 4.45 13 5 13C5.55 13 6 13.4875 6 14.0833C6 14.6792 5.55 15.1667 5 15.1667ZM5 10.8333C4.45 10.8333 4 10.3458 4 9.75C4 9.15417 4.45 8.66667 5 8.66667C5.55 8.66667 6 9.15417 6 9.75C6 10.3458 5.55 10.8333 5 10.8333ZM5 6.5C4.45 6.5 4 6.0125 4 5.41667C4 4.82083 4.45 4.33333 5 4.33333C5.55 4.33333 6 4.82083 6 5.41667C6 6.0125 5.55 6.5 5 6.5ZM11 7.58333V1.625L16.5 7.58333H11Z" fill="#0F81C0"/>
</svg>
