<svg viewBox="0 0 24 24" fill="none" fill="none" xmlns="http://www.w3.org/2000/svg">
<path d="M0.833252 18.3333H4.16659V9.16667H0.833252V18.3333ZM16.6666 14.1667H10.8333L9.09159 13.5583L9.36658 12.775L10.8333 13.3333H13.1833C13.7249 13.3333 14.1666 12.8917 14.1666 12.35C14.1666 11.9417 13.9083 11.575 13.5249 11.425L7.47492 9.16667H5.83325V16.6833L11.6666 18.3333L18.3333 15.8333C18.3249 14.9167 17.5916 14.1667 16.6666 14.1667ZM11.6666 1.25L5.83325 5.41667V7.5H7.49992L14.2833 10.2167C15.2166 10.5917 15.8333 11.4917 15.8333 12.5H17.4999V5.41667L11.6666 1.25ZM11.2499 8.33333H10.4166V7.5H11.2499V8.33333ZM11.2499 6.66667H10.4166V5.83333H11.2499V6.66667ZM12.9166 8.33333H12.0833V7.5H12.9166V8.33333ZM12.9166 6.66667H12.0833V5.83333H12.9166V6.66667Z" />
</svg>
