<svg width="13" height="14" viewBox="0 0 13 14" fill="none" xmlns="http://www.w3.org/2000/svg">
<path d="M4.5 0.195V1.7625C2.7525 2.385 1.5 4.0425 1.5 6C1.5 7.3275 2.085 8.505 3 9.33V7.5H4.5V12H0V10.5H2.0475C0.795 9.405 0 7.8 0 6C0 3.2025 1.9125 0.8625 4.5 0.195ZM12 0H7.5V4.5H9V2.67C9.915 3.495 10.5 4.6725 10.5 6H12C12 4.2 11.205 2.595 9.9525 1.5H12V0ZM12 9.75V9C12 8.175 11.325 7.5 10.5 7.5C9.675 7.5 9 8.175 9 9V9.75C8.5875 9.75 8.25 10.0875 8.25 10.5V12.75C8.25 13.1625 8.5875 13.5 9 13.5H12C12.4125 13.5 12.75 13.1625 12.75 12.75V10.5C12.75 10.0875 12.4125 9.75 12 9.75ZM11.25 9.75H9.75V9C9.75 8.5875 10.0875 8.25 10.5 8.25C10.9125 8.25 11.25 8.5875 11.25 9V9.75Z" fill="#0F81C0"/>
</svg>
